<svg xmlns="http://www.w3.org/2000/svg" xmlns:xlink="http://www.w3.org/1999/xlink" width="1149" height="554" contentScriptType="application/ecmascript" contentStyleType="text/css" style="width:1149px;height:554px;background:#fff" preserveAspectRatio="none" version="1.1" viewBox="0 0 1149 554" zoomAndPan="magnify"><defs><filter id="f1a3d45frax9zi" width="300%" height="300%" x="-1" y="-1"><feGaussianBlur result="blurOut" stdDeviation="2"/><feColorMatrix in="blurOut" result="blurOut2" type="matrix" values="0 0 0 0 0 0 0 0 0 0 0 0 0 0 0 0 0 0 .4 0"/><feOffset dx="4" dy="4" in="blurOut2" result="blurOut3"/><feBlend in="SourceGraphic" in2="blurOut3" mode="normal"/></filter></defs><g><rect style="stroke:#000;stroke-width:1.5" width="816" height="535.72" x="127" y="7" fill="#FFF" filter="url(#f1a3d45frax9zi)"/><path fill="none" d="M204,7 L204,16.2969 L194,26.2969 L127,26.2969" style="stroke:#000;stroke-width:1.5"/><text x="130" y="20.995" fill="#000" font-family="sans-serif" font-size="14" font-weight="bold" lengthAdjust="spacing" textLength="67">backend</text><rect style="stroke:#000;stroke-width:1.5" width="752" height="452.72" x="159" y="58" fill="#FFF" filter="url(#f1a3d45frax9zi)"/><path fill="none" d="M308,58 L308,67.2969 L298,77.2969 L159,77.2969" style="stroke:#000;stroke-width:1.5"/><text x="162" y="71.995" fill="#000" font-family="sans-serif" font-size="14" font-weight="bold" lengthAdjust="spacing" textLength="139">servlet container</text><rect style="stroke:#000;stroke-width:1.5" width="525" height="287.72" x="346" y="117" fill="#FFF" filter="url(#f1a3d45frax9zi)"/><path fill="none" d="M447,117 L447,126.2969 L437,136.2969 L346,136.2969" style="stroke:#000;stroke-width:1.5"/><text x="349" y="130.995" fill="#000" font-family="sans-serif" font-size="14" font-weight="bold" lengthAdjust="spacing" textLength="91">spring core</text><rect style="stroke:#000;stroke-width:1.5" width="447" height="114" x="378" y="176.72" fill="#FFF" filter="url(#f1a3d45frax9zi)"/><path fill="none" d="M480,176.72 L480,186.0169 L470,196.0169 L378,196.0169" style="stroke:#000;stroke-width:1.5"/><text x="381" y="190.715" fill="#000" font-family="sans-serif" font-size="14" font-weight="bold" lengthAdjust="spacing" textLength="92">application</text><rect style="stroke:#a80036;stroke-width:1.5" width="119" height="46.297" x="202.5" y="220.22" fill="#FFF" filter="url(#f1a3d45frax9zi)"/><rect style="stroke:#a80036;stroke-width:1.5" width="15" height="10" x="301.5" y="225.22" fill="#FFF"/><rect style="stroke:#a80036;stroke-width:1.5" width="4" height="2" x="299.5" y="227.22" fill="#FFF"/><rect style="stroke:#a80036;stroke-width:1.5" width="4" height="2" x="299.5" y="231.22" fill="#FFF"/><text x="217.5" y="253.215" fill="#000" font-family="sans-serif" font-size="14" lengthAdjust="spacing" textLength="79">SpringMVC</text><rect style="stroke:#a80036;stroke-width:1.5" width="175" height="46.297" x="704.5" y="440.72" fill="#FFF" filter="url(#f1a3d45frax9zi)"/><rect style="stroke:#a80036;stroke-width:1.5" width="15" height="10" x="859.5" y="445.72" fill="#FFF"/><rect style="stroke:#a80036;stroke-width:1.5" width="4" height="2" x="857.5" y="447.72" fill="#FFF"/><rect style="stroke:#a80036;stroke-width:1.5" width="4" height="2" x="857.5" y="451.72" fill="#FFF"/><text x="719.5" y="473.715" fill="#000" font-family="sans-serif" font-size="14" lengthAdjust="spacing" textLength="135">DbConnectionPool</text><rect style="stroke:#a80036;stroke-width:1.5" width="143" height="46.297" x="370.5" y="334.72" fill="#FFF" filter="url(#f1a3d45frax9zi)"/><rect style="stroke:#a80036;stroke-width:1.5" width="15" height="10" x="493.5" y="339.72" fill="#FFF"/><rect style="stroke:#a80036;stroke-width:1.5" width="4" height="2" x="491.5" y="341.72" fill="#FFF"/><rect style="stroke:#a80036;stroke-width:1.5" width="4" height="2" x="491.5" y="345.72" fill="#FFF"/><text x="385.5" y="367.715" fill="#000" font-family="sans-serif" font-size="14" lengthAdjust="spacing" textLength="103">RestTemplate</text><rect style="stroke:#a80036;stroke-width:1.5" width="122" height="46.297" x="725" y="334.72" fill="#FFF" filter="url(#f1a3d45frax9zi)"/><rect style="stroke:#a80036;stroke-width:1.5" width="15" height="10" x="827" y="339.72" fill="#FFF"/><rect style="stroke:#a80036;stroke-width:1.5" width="4" height="2" x="825" y="341.72" fill="#FFF"/><rect style="stroke:#a80036;stroke-width:1.5" width="4" height="2" x="825" y="345.72" fill="#FFF"/><text x="740" y="367.715" fill="#000" font-family="sans-serif" font-size="14" lengthAdjust="spacing" textLength="82">JpaProvider</text><rect style="stroke:#a80036;stroke-width:1.5" width="141" height="46.297" x="548.5" y="334.72" fill="#FFF" filter="url(#f1a3d45frax9zi)"/><rect style="stroke:#a80036;stroke-width:1.5" width="15" height="10" x="669.5" y="339.72" fill="#FFF"/><rect style="stroke:#a80036;stroke-width:1.5" width="4" height="2" x="667.5" y="341.72" fill="#FFF"/><rect style="stroke:#a80036;stroke-width:1.5" width="4" height="2" x="667.5" y="345.72" fill="#FFF"/><text x="563.5" y="367.715" fill="#000" font-family="sans-serif" font-size="14" lengthAdjust="spacing" textLength="101">JdbcTemplate</text><rect style="stroke:#a80036;stroke-width:1.5" width="138" height="62.594" x="671" y="211.72" fill="#D3D3D3" filter="url(#f1a3d45frax9zi)"/><rect style="stroke:#a80036;stroke-width:1.5" width="15" height="10" x="789" y="216.72" fill="#D3D3D3"/><rect style="stroke:#a80036;stroke-width:1.5" width="4" height="2" x="787" y="218.72" fill="#D3D3D3"/><rect style="stroke:#a80036;stroke-width:1.5" width="4" height="2" x="787" y="222.72" fill="#D3D3D3"/><text x="686" y="244.715" fill="#000" font-family="sans-serif" font-size="14" font-style="italic" lengthAdjust="spacing" textLength="98">«codegened»</text><text x="695.5" y="261.012" fill="#000" font-family="sans-serif" font-size="14" lengthAdjust="spacing" textLength="79">Repository</text><rect style="stroke:#a80036;stroke-width:1.5" width="113" height="46.297" x="394.5" y="220.22" fill="#FEFECE" filter="url(#f1a3d45frax9zi)"/><rect style="stroke:#a80036;stroke-width:1.5" width="15" height="10" x="487.5" y="225.22" fill="#FEFECE"/><rect style="stroke:#a80036;stroke-width:1.5" width="4" height="2" x="485.5" y="227.22" fill="#FEFECE"/><rect style="stroke:#a80036;stroke-width:1.5" width="4" height="2" x="485.5" y="231.22" fill="#FEFECE"/><text x="409.5" y="253.215" fill="#000" font-family="sans-serif" font-size="14" lengthAdjust="spacing" textLength="73">Controller</text><rect style="stroke:#a80036;stroke-width:1.5" width="93" height="46.297" x="542.5" y="220.22" fill="#FEFECE" filter="url(#f1a3d45frax9zi)"/><rect style="stroke:#a80036;stroke-width:1.5" width="15" height="10" x="615.5" y="225.22" fill="#FEFECE"/><rect style="stroke:#a80036;stroke-width:1.5" width="4" height="2" x="613.5" y="227.22" fill="#FEFECE"/><rect style="stroke:#a80036;stroke-width:1.5" width="4" height="2" x="613.5" y="231.22" fill="#FEFECE"/><text x="557.5" y="253.215" fill="#000" font-family="sans-serif" font-size="14" lengthAdjust="spacing" textLength="53">Service</text><rect style="stroke:#000;stroke-width:1.5" width="104" height="46.297" x="7" y="220.22" fill="#FEFECE" filter="url(#f1a3d45frax9zi)"/><path fill="none" d="M41.6667,220.22 L41.6667,225.22 L34.6667,232.22 L7,232.22" style="stroke:#000;stroke-width:1.5"/><text x="22" y="253.215" fill="#000" font-family="sans-serif" font-size="14" lengthAdjust="spacing" textLength="64">frontend</text><path fill="#FFF" d="M959.5,451.22 C959.5,441.22 980,441.22 980,441.22 C980,441.22 1000.5,441.22 1000.5,451.22 L1000.5,476.5169 C1000.5,486.5169 980,486.5169 980,486.5169 C980,486.5169 959.5,486.5169 959.5,476.5169 L959.5,451.22" filter="url(#f1a3d45frax9zi)" style="stroke:#000;stroke-width:1.5"/><path fill="none" d="M959.5,451.22 C959.5,461.22 980,461.22 980,461.22 C980,461.22 1000.5,461.22 1000.5,451.22" style="stroke:#000;stroke-width:1.5"/><text x="969.5" y="478.215" fill="#000" font-family="sans-serif" font-size="14" lengthAdjust="spacing" textLength="21">DB</text><rect style="stroke:#a80036;stroke-width:1.5" width="176" height="46.297" x="959" y="334.72" fill="#FFF" filter="url(#f1a3d45frax9zi)"/><rect style="stroke:#a80036;stroke-width:1.5" width="15" height="10" x="1115" y="339.72" fill="#FFF"/><rect style="stroke:#a80036;stroke-width:1.5" width="4" height="2" x="1113" y="341.72" fill="#FFF"/><rect style="stroke:#a80036;stroke-width:1.5" width="4" height="2" x="1113" y="345.72" fill="#FFF"/><text x="974" y="367.715" fill="#000" font-family="sans-serif" font-size="14" lengthAdjust="spacing" textLength="136">LegacyRestService</text><path id="frontend-to-tomcat" fill="none" d="M111.312,243.22 C120.521,243.22 129.7298,243.22 138.9385,243.22 C143.5429,243.22 148.1472,243.22 152.7517,243.22 C153.9028,243.22 155.0539,243.22 156.205,243.22 C156.7805,243.22 157.3561,243.22 157.9316,243.22 C158.2194,243.22 158.5072,243.22 158.795,243.22" style="stroke:#a80036;stroke-width:1"/><polygon fill="#A80036" points="158.795 243.22 149.795 239.22 153.795 243.22 149.795 247.22 158.795 243.22" style="stroke:#a80036;stroke-width:1"/><path id="Controller-to-Service" fill="none" d="M507.602,243.22 C517.439,243.22 527.277,243.22 537.115,243.22" style="stroke:#a80036;stroke-width:1"/><polygon fill="#A80036" points="542.259 243.22 533.259 239.22 537.259 243.22 533.259 247.22 542.259 243.22" style="stroke:#a80036;stroke-width:1"/><path id="Service-to-Repository" fill="none" d="M635.598,243.22 C645.553,243.22 655.509,243.22 665.464,243.22" style="stroke:#a80036;stroke-width:1"/><polygon fill="#A80036" points="670.67 243.22 661.67 239.22 665.67 243.22 661.67 247.22 670.67 243.22" style="stroke:#a80036;stroke-width:1"/><path id="Repository-to-JpaProvider" fill="none" d="M752.57,274.961 C759.561,292.059 768.183,313.146 774.92,329.622" style="stroke:#a80036;stroke-width:1"/><polygon fill="#A80036" points="776.946 334.578 777.242 324.734 775.053 329.95 769.837 327.762 776.946 334.578" style="stroke:#a80036;stroke-width:1"/><path id="Repository-to-JdbcTemplate" fill="none" d="M706.936,274.961 C688.071,292.501 664.69,314.239 646.781,330.891" style="stroke:#a80036;stroke-width:1"/><polygon fill="#A80036" points="642.815 334.578 652.13 331.381 646.477 331.174 646.684 325.521 642.815 334.578" style="stroke:#a80036;stroke-width:1"/><path id="Service-to-RestTemplate" fill="none" d="M564.23,266.271 C552.547,276.421 538.283,288.461 525,298.72 C510.5,309.919 494.05,321.612 479.641,331.541" style="stroke:#a80036;stroke-width:1"/><polygon fill="#A80036" points="475.24 334.564 484.923 332.767 479.362 331.734 480.395 326.172 475.24 334.564" style="stroke:#a80036;stroke-width:1"/><path id="RestTemplate-to-LegacyRestService" fill="none" d="M490.744,334.633 C508.509,327.388 529.021,320.34 548.5,316.72 C695.756,289.354 736.878,298.149 885.5,316.72 C912.545,320.099 941.558,326.545 967.428,333.342" style="stroke:#a80036;stroke-width:1"/><polygon fill="#A80036" points="972.559 334.705 964.889 328.527 967.727 333.421 962.833 336.259 972.559 334.705" style="stroke:#a80036;stroke-width:1"/><path id="JdbcTemplate-to-DbConnectionPool" fill="none" d="M647.974,380.844 C664.781,393.238 686.598,408.591 707,420.72 C717.276,426.829 728.562,432.851 739.458,438.346" style="stroke:#a80036;stroke-width:1"/><polygon fill="#A80036" points="744.1 440.667 737.838 433.065 739.628 438.432 734.261 440.221 744.1 440.667" style="stroke:#a80036;stroke-width:1"/><path id="JpaProvider-to-DbConnectionPool" fill="none" d="M787.272,380.776 C788.195,396.77 789.449,418.498 790.433,435.562" style="stroke:#a80036;stroke-width:1"/><polygon fill="#A80036" points="790.729 440.696 794.206 431.481 790.442 435.704 786.219 431.941 790.729 440.696" style="stroke:#a80036;stroke-width:1"/><path id="DbConnectionPool-to-DB" fill="none" d="M879.758,463.72 C904.495,463.72 929.231,463.72 953.968,463.72" style="stroke:#a80036;stroke-width:1"/><polygon fill="#A80036" points="959.247 463.72 950.247 459.72 954.247 463.72 950.247 467.72 959.247 463.72" style="stroke:#a80036;stroke-width:1"/><path id="spring-to-Controller" fill="none" d="M739.86,144.718 C733.993,144.643 546.101,142.304 525,152.72 C497.995,166.051 477.31,194.297 464.764,215.513" style="stroke:#a80036;stroke-width:1;stroke-dasharray:7,7"/><polygon fill="#A80036" points="462.211 219.926 470.18 214.139 464.715 215.598 463.256 210.133 462.211 219.926" style="stroke:#a80036;stroke-width:1"/><path id="spring-to-Service" fill="none" d="M739.949,144.719 C737.821,144.671 669.577,143.21 653,152.72 C628.508,166.771 610.961,194.436 600.506,215.308" style="stroke:#a80036;stroke-width:1;stroke-dasharray:7,7"/><polygon fill="#A80036" points="598.255 219.919 605.797 213.585 600.448 215.426 598.608 210.077 598.255 219.919" style="stroke:#a80036;stroke-width:1"/><path id="spring-to-Repository" fill="none" d="M740,144.791 C740,146.51 740,179.26 740,206.321" style="stroke:#a80036;stroke-width:1;stroke-dasharray:7,7"/><polygon fill="#A80036" points="740 211.646 744 202.646 740 206.646 736 202.646 740 211.646" style="stroke:#a80036;stroke-width:1"/><path id="spring-to-JpaProvider" fill="none" d="M740.057,144.721 C742.439,144.752 818.714,145.815 825,152.72 C868.681,200.705 843.927,236.653 825,298.72 C821.562,309.993 815.12,321.06 808.447,330.456" style="stroke:#a80036;stroke-width:1;stroke-dasharray:7,7"/><polygon fill="#A80036" points="805.374 334.65 813.92 329.754 808.329 330.617 807.466 325.026 805.374 334.65" style="stroke:#a80036;stroke-width:1"/><path id="spring-to-DbConnectionPool" fill="none" d="M871.2076,161.8539 C871.4976,162.191 871.786,162.528 872.0728,162.8649 C872.6465,163.5387 873.214,164.2119 873.7754,164.8848 C874.8981,166.2304 875.9962,167.5742 877.07,168.9162 C881.3652,174.2843 885.271,179.6247 888.8039,184.946 C895.8697,195.5885 901.4438,206.1543 905.6578,216.7122 C914.0856,237.828 917.0725,258.9119 915.6703,280.513 C912.8658,323.7153 892.5045,368.9865 863,420.72 C859.311,427.189 854.191,432.763 848.373,437.539" style="stroke:#a80036;stroke-width:1;stroke-dasharray:7,7"/><polygon fill="#A80036" points="844.244 440.718 853.815 438.397 848.206 437.668 848.935 432.058 844.244 440.718" style="stroke:#a80036;stroke-width:1"/><path id="tomcat-to-SpringMVC" fill="none" d="M167.371,243.22 C177.339,243.22 187.307,243.22 197.275,243.22" style="stroke:#a80036;stroke-width:1"/><polygon fill="#A80036" points="202.487 243.22 193.487 239.22 197.487 243.22 193.487 247.22 202.487 243.22" style="stroke:#a80036;stroke-width:1"/><path id="SpringMVC-to-Controller" fill="none" d="M321.801,243.22 C344.322,243.22 366.844,243.22 389.365,243.22" style="stroke:#a80036;stroke-width:1"/><polygon fill="#A80036" points="394.475 243.22 385.475 239.22 389.475 243.22 385.475 247.22 394.475 243.22" style="stroke:#a80036;stroke-width:1"/></g></svg>